<svg width="212" height="205" viewBox="0 0 212 205" fill="none" xmlns="http://www.w3.org/2000/svg">
<g clip-path="url(#clip0_121_520)">
<path d="M190.916 198.604C191.718 198.655 192.162 197.649 191.555 197.064L191.494 196.822C191.502 196.802 191.51 196.783 191.518 196.763C192.33 194.813 195.082 194.826 195.887 196.78C196.601 198.514 197.511 200.251 197.735 202.084C197.835 202.894 197.79 203.718 197.612 204.512C199.286 200.827 200.167 196.803 200.167 192.756C200.167 191.74 200.111 190.723 199.998 189.709C199.906 188.879 199.778 188.055 199.612 187.238C198.716 182.821 196.776 178.615 193.977 175.102C192.632 174.361 191.51 173.203 190.833 171.814C190.589 171.313 190.398 170.775 190.308 170.226C190.461 170.246 190.885 167.896 190.77 167.752C190.983 167.426 191.365 167.264 191.598 166.945C192.757 165.362 194.354 165.638 195.187 167.79C196.968 168.696 196.985 170.198 195.892 171.642C195.197 172.561 195.102 173.805 194.492 174.789C194.555 174.87 194.62 174.948 194.683 175.029C195.833 176.516 196.828 178.115 197.667 179.794C197.43 177.928 197.78 175.679 198.377 174.23C199.056 172.578 200.33 171.187 201.451 169.76C202.798 168.045 205.56 168.793 205.797 170.967C205.799 170.988 205.802 171.009 205.804 171.03C205.637 171.125 205.474 171.225 205.315 171.332C204.406 171.937 204.72 173.358 205.797 173.525L205.821 173.529C205.761 174.133 205.658 174.733 205.508 175.322C206.946 180.928 203.841 182.97 199.406 183.062C199.308 183.112 199.213 183.163 199.115 183.211C199.564 184.486 199.923 185.793 200.189 187.119C200.428 188.29 200.593 189.473 200.686 190.662C200.802 192.162 200.792 193.669 200.666 195.167L200.674 195.114C200.992 193.465 201.881 191.924 203.171 190.857C205.093 189.266 207.808 188.68 209.881 187.401C210.879 186.786 212.158 187.581 211.984 188.747L211.975 188.803C211.667 188.93 211.366 189.076 211.074 189.241C210.908 189.335 210.745 189.436 210.585 189.542C209.676 190.148 209.99 191.568 211.068 191.736L211.092 191.74C211.11 191.742 211.125 191.745 211.142 191.747C210.613 193.014 209.875 194.191 208.951 195.205C208.052 200.099 204.189 200.563 200.056 199.138H200.054C199.602 201.121 198.942 203.058 198.094 204.904H191.091C191.066 204.826 191.043 204.745 191.021 204.667C191.668 204.707 192.321 204.669 192.958 204.55C192.439 203.908 191.919 203.26 191.4 202.618C191.387 202.605 191.377 202.593 191.367 202.58C191.104 202.251 190.838 201.925 190.574 201.596L190.574 201.596C190.557 200.586 190.677 199.58 190.915 198.604L190.916 198.604V198.604Z" fill="#F2F2F2"/>
<path d="M62.0782 204.534C62.0782 204.792 62.2842 205 62.5407 205H211.483C211.74 205 211.945 204.792 211.945 204.534C211.945 204.275 211.74 204.068 211.483 204.068H62.5407C62.2842 204.068 62.0782 204.275 62.0782 204.534Z" fill="#CCCCCC"/>
<path d="M84.6788 204.802H16.1221C7.76278 204.802 0.961914 197.948 0.961914 189.524V41.0513C0.961914 32.6274 7.76278 25.7739 16.1221 25.7739H84.6788C93.038 25.7739 99.8389 32.6274 99.8389 41.0513V189.524C99.8389 197.948 93.038 204.802 84.6788 204.802Z" fill="#3F3D56"/>
<path d="M99.839 80.3872C99.4853 80.3872 99.1976 80.6771 99.1976 81.0335V101.715C99.1976 102.072 99.4853 102.362 99.839 102.362C100.193 102.362 100.48 102.072 100.48 101.715V81.0335C100.48 80.6771 100.193 80.3872 99.839 80.3872Z" fill="#3F3D56"/>
<path d="M98.396 41.0516V189.522C98.396 196.854 92.7329 202.852 85.5723 203.317H85.569C85.4632 203.324 85.3574 203.33 85.2484 203.333C85.0592 203.343 84.87 203.346 84.6776 203.346C84.6776 203.346 83.9721 203.295 82.683 203.198C81.381 203.101 79.4859 202.955 77.1225 202.765C76.4138 202.71 75.6666 202.648 74.8777 202.584C73.3065 202.454 71.5812 202.312 69.7309 202.151C68.9934 202.089 68.2302 202.021 67.4509 201.953C63.4682 201.608 59.0076 201.204 54.3033 200.745C53.508 200.67 52.7063 200.593 51.8982 200.512C51.6866 200.49 51.4717 200.47 51.2569 200.448C47.9026 200.115 2.40515 191.254 2.40515 189.522V41.0516C2.40515 33.4155 8.54607 27.2271 16.1236 27.2271H24.3136C25.622 27.2271 26.6738 28.2547 26.786 29.5699C26.7956 29.6572 26.8053 29.7444 26.8213 29.8317C27.0586 31.1534 28.2611 32.0744 29.5951 32.0744H71.2061C72.54 32.0744 73.7426 31.1534 73.9799 29.8317C73.9959 29.7444 74.0055 29.6572 74.0152 29.5699C74.1274 28.2547 75.1792 27.2271 76.4875 27.2271H84.6776C92.2551 27.2271 98.396 33.4155 98.396 41.0516Z" fill="white"/>
<path d="M0.641347 64.8755C0.287634 64.8755 0 65.1654 0 65.5218V70.6923C0 71.0487 0.287638 71.3386 0.641347 71.3386C0.995057 71.3386 1.28269 71.0487 1.28269 70.6923V65.5218C1.28269 65.1653 0.995057 64.8755 0.641347 64.8755Z" fill="#3F3D56"/>
<path d="M0.641347 80.3872C0.287634 80.3872 0 80.6771 0 81.0335V91.0513C0 91.4078 0.287638 91.6976 0.641347 91.6976C0.995057 91.6976 1.28269 91.4078 1.28269 91.0513V81.0335C1.28269 80.6771 0.995057 80.3872 0.641347 80.3872Z" fill="#3F3D56"/>
<path d="M0.641347 94.606C0.287634 94.606 0 94.8958 0 95.2523V105.27C0 105.627 0.287638 105.916 0.641347 105.916C0.995057 105.916 1.28269 105.626 1.28269 105.27V95.2523C1.28269 94.8958 0.995057 94.606 0.641347 94.606Z" fill="#3F3D56"/>
<path d="M24.0903 29.4902H11.8251C11.7586 29.4902 11.7046 29.5446 11.7046 29.6117V30.9845C11.7046 31.0516 11.7586 31.106 11.8251 31.106H24.0903C24.1569 31.106 24.2109 31.0516 24.2109 30.9845V29.6117C24.2109 29.5446 24.1569 29.4902 24.0903 29.4902Z" fill="#E6E6E6"/>
<path d="M78.5141 31.1062C79.2226 31.1062 79.7968 30.5275 79.7968 29.8136C79.7968 29.0997 79.2226 28.521 78.5141 28.521C77.8057 28.521 77.2314 29.0997 77.2314 29.8136C77.2314 30.5275 77.8057 31.1062 78.5141 31.1062Z" fill="#E6E6E6"/>
<path d="M82.0415 31.1062C82.7499 31.1062 83.3242 30.5275 83.3242 29.8136C83.3242 29.0997 82.7499 28.521 82.0415 28.521C81.3331 28.521 80.7588 29.0997 80.7588 29.8136C80.7588 30.5275 81.3331 31.1062 82.0415 31.1062Z" fill="#E6E6E6"/>
<path d="M85.569 31.1062C86.2774 31.1062 86.8517 30.5275 86.8517 29.8136C86.8517 29.0997 86.2774 28.521 85.569 28.521C84.8605 28.521 84.2863 29.0997 84.2863 29.8136C84.2863 30.5275 84.8605 31.1062 85.569 31.1062Z" fill="#E6E6E6"/>
<path d="M77.4413 116.897H23.0389C22.1818 116.897 21.4845 116.195 21.4845 115.331C21.4845 114.467 22.1818 113.765 23.0389 113.765H77.4413C78.2984 113.765 78.9957 114.467 78.9957 115.331C78.9957 116.195 78.2984 116.897 77.4413 116.897Z" fill="#E6E6E6"/>
<path d="M50.4353 177.594C62.8828 177.594 72.9734 167.426 72.9734 154.882C72.9734 142.338 62.8828 132.169 50.4353 132.169C37.9878 132.169 27.8971 142.338 27.8971 154.882C27.8971 167.426 37.9878 177.594 50.4353 177.594Z" fill="#007FFF"/>
<path d="M54.0172 147.466C52.1152 147.544 49.9648 147.676 48.5589 149.147C47.3375 150.425 47.0699 152.321 48.3085 153.685C49.5503 155.053 51.4811 155.238 52.9126 156.305C54.5935 157.558 54.3473 160.037 52.7207 161.224C50.8026 162.624 48.3261 161.971 46.5725 160.639C46.1232 160.298 45.687 161.062 46.1312 161.4C47.7023 162.594 49.7524 163.258 51.6949 162.687C53.448 162.171 54.8069 160.731 54.9451 158.857C55.0111 157.963 54.7588 157.055 54.207 156.349C53.6245 155.604 52.7855 155.145 51.9374 154.772C50.4773 154.13 47.9633 153.299 48.3878 151.207C48.9024 148.672 51.9644 148.432 54.0172 148.347C54.5779 148.324 54.5808 147.442 54.0172 147.466L54.0172 147.466Z" fill="white"/>
<path d="M50.4886 146.267L50.4048 165.609C50.4023 166.176 51.2767 166.177 51.2791 165.609L51.3629 146.267C51.3654 145.7 50.4911 145.699 50.4886 146.267Z" fill="white"/>
<path d="M169.847 0H58.7258C54.6495 0 51.3348 3.34029 51.3348 7.44811V84.185C51.3348 88.2928 54.6495 91.6331 58.7258 91.6331H169.847C173.923 91.6331 177.238 88.2928 177.238 84.185V7.44811C177.238 3.34029 173.923 0 169.847 0Z" fill="white"/>
<path d="M113.775 45.627C120.643 45.627 126.21 40.0167 126.21 33.096C126.21 26.1753 120.643 20.5649 113.775 20.5649C106.908 20.5649 101.34 26.1753 101.34 33.096C101.34 40.0167 106.908 45.627 113.775 45.627Z" fill="#007FFF"/>
<path d="M116.134 27.5037C114.595 27.5677 112.862 27.666 111.698 28.8203C110.733 29.7765 110.396 31.2651 111.282 32.3909C112.215 33.5763 113.767 33.8012 114.985 34.5587C115.743 35.0295 116.244 35.7427 116.26 36.6593C116.276 37.5175 115.883 38.3192 115.226 38.857C113.614 40.1766 111.416 39.6303 109.891 38.4763C109.591 38.2492 109.3 38.759 109.597 38.9835C110.86 39.9393 112.486 40.4944 114.057 40.0832C115.504 39.7046 116.669 38.5579 116.826 37.0255C116.991 35.4105 115.939 34.3108 114.574 33.6799C113.327 33.1033 111.139 32.4889 111.345 30.6974C111.608 28.4196 114.375 28.1642 116.134 28.0911C116.508 28.0756 116.51 27.4881 116.134 27.5037V27.5037Z" fill="white"/>
<path d="M113.459 26.439L113.389 42.5563C113.388 42.9343 113.971 42.9348 113.972 42.5563L114.042 26.439C114.044 26.061 113.461 26.0605 113.459 26.439Z" fill="white"/>
<path d="M169.847 0H58.7258C54.6495 0 51.3348 3.34029 51.3348 7.44811V84.185C51.3348 88.2928 54.6495 91.6331 58.7258 91.6331H169.847C173.923 91.6331 177.238 88.2928 177.238 84.185V7.44811C177.238 3.34029 173.923 0 169.847 0ZM176.461 84.185C176.461 87.8621 173.496 90.85 169.847 90.85H58.7258C55.077 90.85 52.112 87.8621 52.112 84.185V7.44811C52.112 3.77106 55.077 0.783189 58.7258 0.783189H169.847C173.496 0.783189 176.461 3.77106 176.461 7.44811V84.185Z" fill="#3F3D56"/>
<path d="M101.475 7.57715H90.5707C90.0228 7.57715 89.5759 8.02749 89.5759 8.57963C89.5759 9.13569 90.0228 9.58603 90.5707 9.58603H101.475C102.022 9.58603 102.469 9.13569 102.469 8.57963C102.469 8.02749 102.022 7.57715 101.475 7.57715Z" fill="#E6E6E6"/>
<path d="M119.738 7.57715H108.834C108.286 7.57715 107.84 8.02749 107.84 8.57963C107.84 9.13569 108.286 9.58603 108.834 9.58603H119.738C120.286 9.58603 120.733 9.13569 120.733 8.57963C120.733 8.02749 120.286 7.57715 119.738 7.57715Z" fill="#E6E6E6"/>
<path d="M138.002 7.57715H127.098C126.55 7.57715 126.103 8.02749 126.103 8.57963C126.103 9.13569 126.55 9.58603 127.098 9.58603H138.002C138.55 9.58603 138.997 9.13569 138.997 8.57963C138.997 8.02749 138.55 7.57715 138.002 7.57715Z" fill="#E6E6E6"/>
<path d="M155.986 52.6758H72.5868C69.1167 52.6758 66.2955 55.5188 66.2955 59.0157V64.7408C66.2955 68.2377 69.1167 71.0807 72.5868 71.0807H155.986C159.456 71.0807 162.277 68.2377 162.277 64.7408V59.0157C162.277 55.5188 159.456 52.6758 155.986 52.6758Z" fill="#007FFF"/>
<path d="M28.4367 82.8189L25.2386 81.2923C26.5503 83.137 27.6806 86.018 28.2857 88.3106C29.3103 86.1751 30.9618 83.5621 32.5966 82.0013L29.2166 82.8775C31.2994 72.5911 39.1331 65.2065 48.1038 65.2065V64.4233C38.7337 64.4233 30.5632 72.1172 28.4367 82.8189Z" fill="#3F3D56"/>
<path d="M43.1561 98.4921H22.9495C22.0924 98.4921 21.3951 97.7894 21.3951 96.9258C21.3951 96.0621 22.0924 95.3594 22.9495 95.3594H43.1561C44.0132 95.3594 44.7105 96.0621 44.7105 96.9258C44.7105 97.7894 44.0132 98.4921 43.1561 98.4921Z" fill="#E6E6E6"/>
<path d="M177.577 93.3903L177.373 109.383L173.425 123.639L170.268 122.452L171.67 109.385L171.485 91.7017L177.577 93.3903Z" fill="#FFB6B6"/>
<path d="M173.411 125.938C173.781 123.888 173.103 122.047 171.895 121.825C170.687 121.603 169.408 123.086 169.037 125.135C168.667 127.185 169.346 129.027 170.553 129.248C171.761 129.47 173.041 127.988 173.411 125.938Z" fill="#FFB6B6"/>
<path d="M172.785 74.3486C172.785 74.3486 179.55 74.4425 179.544 78.0635C179.541 80.1079 179.105 98.6705 177.893 109.947C176.958 118.643 175.172 120.912 175.172 120.912L170.898 111.122L172.785 74.3486Z" fill="#E6E6E6"/>
<path d="M172.612 107.022H149.767C151.682 102.716 152.859 98.6155 151.019 95.3537L172.612 94.0923C171.533 98.4956 171.401 102.817 172.612 107.022Z" fill="#FFB6B6"/>
<path d="M169.795 68.8641L160.72 68.2334L156.965 72.9637L155.061 73.3125C152.207 73.8354 150.175 76.4017 150.303 79.3219L151.043 96.2829L172.735 97.8768L177.931 75.79L171.673 73.2791L169.795 68.8641V68.8641Z" fill="#E6E6E6"/>
<path d="M114.451 73.9807C115.095 74.5644 115.555 75.2463 115.798 75.9076L122.28 81.0777L119.748 84.1141L113.445 78.5426C112.767 78.3691 112.046 77.9803 111.402 77.3966C109.931 76.0631 109.421 74.2175 110.263 73.2742C111.106 72.3309 112.981 72.6473 114.451 73.9807L114.451 73.9807Z" fill="#FFB6B6"/>
<path d="M160.28 78.3334V78.3334L135.443 95.2344L117.639 82.7488L120.312 77.8695L134.325 86.076L147.247 76.0769C151.849 71.7211 157.616 72.5654 160.28 78.3334H160.28Z" fill="#E6E6E6"/>
<path d="M164.719 66.8171C168.438 66.8171 171.452 63.7794 171.452 60.0323C171.452 56.2852 168.438 53.2476 164.719 53.2476C161.001 53.2476 157.987 56.2852 157.987 60.0323C157.987 63.7794 161.001 66.8171 164.719 66.8171Z" fill="#FFB6B6"/>
<path d="M173.871 58.3652V59.681L166.278 57.5272L160.585 58.7294C160.519 57.8562 160.262 56.9986 159.835 56.2389C160.132 57.4573 160.166 58.4 159.85 58.8861L159.085 59.0466C158.961 58.7059 158.72 58.4083 158.405 58.2282C158.374 58.2086 158.335 58.1929 158.3 58.2047C158.246 58.2243 158.242 58.2947 158.242 58.3496C158.249 58.6394 158.257 58.9291 158.269 59.2189L156.069 59.681V58.3652C153.959 53.5808 159.521 49.4407 164.972 49.3977C167.432 49.3783 169.655 50.4002 171.267 52.0214C172.876 53.6465 173.871 55.8865 173.871 58.3652Z" fill="#2F2E41"/>
<path d="M178.142 73.7935L177.569 73.7457C177.61 73.5567 177.65 73.3701 177.688 73.1812C178.006 71.5954 177.306 69.5767 177.255 68.0531C176.985 69.6628 177.446 71.6432 176.969 73.1716C176.916 73.3414 174.841 74.4374 174.784 74.6048C172.488 73.7585 170.096 71.0546 167.388 72.6339C165.787 73.5679 163.96 73.1585 162.141 72.7309C161.691 72.625 161.629 70.3852 161.183 70.2972C160.386 70.1396 159.214 72.1757 158.463 72.2552L161.572 60.1158C161.572 53.5119 160.965 46.5833 169.266 48.9184C171.354 49.5057 173.42 49.966 174.961 51.7025C176.502 53.4414 177.599 55.8715 177.988 58.6388C178.222 60.3083 179.685 65.977 178.142 73.7935Z" fill="#2F2E41"/>
<path d="M172.782 195.868L169.076 195.956L167.01 179.178L172.479 179.048L172.782 195.868Z" fill="#FFB7B7"/>
<path d="M160.068 203.659C160.068 204.29 160.512 204.801 161.06 204.801H168.416C168.416 204.801 169.139 201.869 172.091 200.607L172.294 204.801H176.089L175.629 198.057C175.629 198.057 176.644 194.449 174.536 192.605C172.428 190.761 174.136 191.017 174.136 191.017L173.306 186.843L167.572 187.523L167.53 194.075L164.747 200.579L160.666 202.61C160.303 202.791 160.068 203.203 160.068 203.659H160.068H160.068Z" fill="#2F2E41"/>
<path d="M161.507 193.134L157.945 194.167L151.722 178.467L156.979 176.942L161.507 193.134Z" fill="#FFB7B7"/>
<path d="M151.171 203.921C151.33 204.531 151.888 204.913 152.419 204.772L159.534 202.891C159.534 202.891 159.495 199.87 162.032 197.895L163.285 201.899L166.956 200.929L164.813 194.523C164.813 194.523 164.886 190.774 162.383 189.529C159.879 188.284 161.595 188.096 161.595 188.096L159.742 184.271L154.367 186.394L155.976 192.743L154.922 199.745L151.486 202.754C151.18 203.022 151.056 203.481 151.171 203.921L151.171 203.921L151.171 203.921Z" fill="#2F2E41"/>
<path d="M170.509 106.031L172.841 106.814C176.486 113.599 178.032 122.608 177.827 133.473L173.685 182.27H166.91L161.951 127.908L153.208 148.312L159.605 182.27L153.208 182.927L140.323 147.617L149.297 106.577L170.509 106.031Z" fill="#2F2E41"/>
</g>
<defs>
<clipPath id="clip0_121_520">
<rect width="212" height="205" fill="white"/>
</clipPath>
</defs>
</svg>
